# xmcd
#
# Track frame offsets:
#	150
#	10830
#	19637
#	34307
#	44015
#	55202
#	68692
#	79842
#	94412
#	109222
#	122892
#	135632
#	148985
#	161207
#	173500
#	186235
#	200172
#	213935
#	227167
#
# Disc length: 3152 seconds
#
# Revision: 1
# Processed by: cddbd v1.5.1PL2 Copyright (c) Steve Scherf et al.
# Submitted via: EasyCDDAExtractor 9.1.3.1
#
DISCID=1b0c4e13
DTITLE=Dario Moréno - 2 CD Collection [CD2)
DYEAR=2000
DGENRE=Chanson
TTITLE0=Dansons mon amour
TTITLE1=Tout l'amour
TTITLE2=Mon coeur est prisonnier
TTITLE3=Oh ! Qué mambo
TTITLE4=Eso se el amor
TTITLE5=Guitare et tambourin
TTITLE6=Tu m'étais destinée
TTITLE7=Toi l'andalou
TTITLE8=Le monde est grand
TTITLE9=Je te tendrai les bras
TTITLE10=Roméo
TTITLE11=Les enfants du Pirée
TTITLE12=Tumba le le
TTITLE13=Ni na Nai
TTITLE14=Au coeur de la Bohème
TTITLE15=Para todo el ano
TTITLE16=J'ai ma tête qui tourne
TTITLE17=América
TTITLE18=Sans amour
EXTD=
EXTT0=
EXTT1=
EXTT2=
EXTT3=
EXTT4=
EXTT5=
EXTT6=
EXTT7=
EXTT8=
EXTT9=
EXTT10=
EXTT11=
EXTT12=
EXTT13=
EXTT14=
EXTT15=
EXTT16=
EXTT17=
EXTT18=
PLAYORDER=
